<svg width="120" height="120" viewBox="0 0 120 120" fill="none" xmlns="http://www.w3.org/2000/svg">
<g clip-path="url(#clip0_103_170)">
<path d="M60 0C75.913 0 91.1742 6.32141 102.426 17.5736C113.679 28.8258 120 44.087 120 60C120 75.913 113.679 91.1742 102.426 102.426C91.1742 113.679 75.913 120 60 120C44.087 120 28.8258 113.679 17.5736 102.426C6.32141 91.1742 0 75.913 0 60C0 44.087 6.32141 28.8258 17.5736 17.5736C28.8258 6.32141 44.087 0 60 0ZM87.7202 41.1958C87.2719 40.7874 86.7475 40.4715 86.177 40.2659C85.6065 40.0604 85.001 39.9693 84.3953 39.9978C83.7895 40.0264 83.1954 40.1741 82.6467 40.4324C82.0981 40.6908 81.6057 41.0547 81.1978 41.5034L53.6868 71.7649L38.6483 56.7326C38.2259 56.2792 37.7164 55.9156 37.1503 55.6633C36.5842 55.4111 35.9731 55.2755 35.3534 55.2645C34.7338 55.2536 34.1183 55.3676 33.5437 55.5997C32.969 55.8318 32.447 56.1773 32.0088 56.6155C31.5706 57.0537 31.2251 57.5757 30.993 58.1504C30.7609 58.725 30.6469 59.3405 30.6578 59.9601C30.6688 60.5798 30.8044 61.1909 31.0566 61.757C31.3089 62.3231 31.6725 62.8326 32.1259 63.255L50.5856 81.7147C51.0268 82.1563 51.5531 82.5039 52.1325 82.7362C52.7119 82.9686 53.3325 83.081 53.9566 83.0667C54.5808 83.0523 55.1955 82.9114 55.7636 82.6526C56.3317 82.3938 56.8414 82.0224 57.2618 81.5609L88.0279 47.7182C88.4362 47.2699 88.7522 46.7454 88.9578 46.1749C89.1633 45.6044 89.2544 44.999 89.2258 44.3932C89.1973 43.7875 89.0496 43.1933 88.7912 42.6447C88.5329 42.096 88.169 41.6037 87.7202 41.1958Z" fill="#0066FF"/>
</g>
<defs>
<clipPath id="clip0_103_170">
<rect width="120" height="120" fill="white"/>
</clipPath>
</defs>
</svg>
