<svg width="150" height="150" viewBox="0 0 150 150" fill="none" xmlns="http://www.w3.org/2000/svg">
<path d="M82.95 20.4C87.1926 20.8217 91.1271 22.8052 93.9892 25.9653C96.8513 29.1254 98.4367 33.2365 98.4375 37.5V64.0625H112.5C117.058 64.0625 121.43 65.8733 124.653 69.0966C127.877 72.3199 129.688 76.6916 129.688 81.25C129.688 81.5625 129.656 81.8708 129.594 82.175L123.344 113.425L123.312 113.569C122.262 118.05 120.206 122.194 117.206 125.194C114.613 127.787 111.344 129.469 107.756 129.688H62.5C56.8312 129.688 51.375 127.625 47.125 123.938C46.1888 125.675 44.7998 127.127 43.1053 128.14C41.4108 129.152 39.4739 129.687 37.5 129.688H25C22.0992 129.688 19.3172 128.535 17.266 126.484C15.2148 124.433 14.0625 121.651 14.0625 118.75V75C14.0625 72.0992 15.2148 69.3172 17.266 67.266C19.3172 65.2148 22.0992 64.0625 25 64.0625H43.75L44.7562 64.0375C49.7893 63.7879 54.5498 61.6763 58.1131 58.1131C61.6763 54.5498 63.7879 49.7893 64.0375 44.7562L64.0625 43.75V37.5C64.0625 32.9416 65.8733 28.5699 69.0966 25.3466C72.3199 22.1233 76.6916 20.3125 81.25 20.3125L82.95 20.4ZM81.25 29.6875C79.178 29.6875 77.1909 30.5106 75.7257 31.9757C74.2606 33.4409 73.4375 35.428 73.4375 37.5V43.75C73.4369 50.8107 70.9198 57.64 66.338 63.0122C61.7561 68.3844 55.4096 71.9477 48.4375 73.0625V106.25C48.4375 109.98 49.9191 113.556 52.5563 116.194C55.1935 118.831 58.7704 120.312 62.5 120.312H106.25L106.65 120.331C107.731 120.425 109.112 120.031 110.575 118.569C112.081 117.063 113.438 114.613 114.188 111.431L120.294 80.8688C120.196 78.8668 119.332 76.979 117.882 75.5958C116.431 74.2126 114.504 73.4399 112.5 73.4375H93.75C92.5068 73.4375 91.3145 72.9436 90.4354 72.0646C89.5564 71.1855 89.0625 69.9932 89.0625 68.75V37.5C89.0628 35.562 88.3427 33.6931 87.0421 32.2562C85.7416 30.8194 83.9534 29.9173 82.025 29.725L81.25 29.6875ZM25 73.4375C24.5856 73.4375 24.1882 73.6021 23.8951 73.8951C23.6021 74.1882 23.4375 74.5856 23.4375 75V118.75L23.4688 119.056C23.5395 119.41 23.7307 119.729 24.0099 119.958C24.2891 120.187 24.6389 120.312 25 120.312H37.5C37.9144 120.312 38.3118 120.148 38.6049 119.855C38.8979 119.562 39.0625 119.164 39.0625 118.75V73.4375H25Z" fill="#0066FF"/>
</svg>
