<svg width="400" height="236" viewBox="0 0 400 236" fill="none" xmlns="http://www.w3.org/2000/svg">
<g clip-path="url(#clip0_68_353)">
<path d="M83.8671 125C94.2512 125 102.664 133.4 102.664 143.769C102.664 154.137 94.2512 162.537 83.8671 162.537C73.4831 162.537 65.0703 154.137 65.0703 143.769C65.0703 133.4 73.4831 125 83.8671 125ZM234.294 129.88C242.082 129.902 248.375 136.223 248.353 143.992C248.33 151.768 242 158.051 234.22 158.029L159.025 157.843C151.237 157.821 144.944 151.501 144.966 143.732C144.988 135.955 151.319 129.672 159.099 129.694L234.294 129.88ZM83.8671 49.9185C94.2512 49.9185 102.664 58.3186 102.664 68.6871C102.664 79.0555 94.2512 87.4556 83.8671 87.4556C73.4831 87.4556 65.0703 79.0555 65.0703 68.6871C65.0703 58.3186 73.4831 49.9185 83.8671 49.9185ZM159.062 49.9185C169.446 49.9185 177.859 58.3186 177.859 68.6871C177.859 79.0555 169.446 87.4556 159.062 87.4556C148.678 87.4556 140.265 79.0555 140.265 68.6871C140.265 58.3186 148.678 49.9185 159.062 49.9185ZM234.249 49.9185C244.633 49.9185 253.046 58.3186 253.046 68.6871C253.046 79.0555 244.633 87.4556 234.249 87.4556C223.865 87.4556 215.452 79.0555 215.452 68.6871C215.452 58.3186 223.865 49.9185 234.249 49.9185ZM309.444 49.9185C319.828 49.9185 328.241 58.3186 328.241 68.6871C328.241 79.0555 319.828 87.4556 309.444 87.4556C299.06 87.4556 290.647 79.0555 290.647 68.6871C290.647 58.3186 299.06 49.9185 309.444 49.9185Z" fill="#FFFAF5"/>
<path d="M347.716 0C372.895 0 393.313 20.3803 393.313 45.5289V106.232C393.313 111.26 389.229 115.337 384.193 115.337C379.158 115.337 375.074 111.26 375.074 106.232V45.5289C375.074 30.4442 362.823 18.2116 347.716 18.2116H45.5974C30.49 18.2116 18.239 30.4442 18.239 45.5289V166.934C18.239 182.019 30.49 194.252 45.5974 194.252H274.76C279.795 194.252 283.879 198.329 283.879 203.357C283.879 208.386 279.795 212.463 274.76 212.463H45.5974C20.4184 212.463 0 192.083 0 166.934V45.5289C0 20.3877 20.411 0 45.5974 0H347.716Z" fill="#FFFAF5"/>
<path d="M378.124 146.858C382.885 141.763 390.881 141.481 395.984 146.227C401.087 150.973 401.369 158.965 396.616 164.06C396.416 164.275 396.2 164.483 395.984 164.691L371.214 189.424L395.984 214.156C401.087 218.91 401.369 226.894 396.616 231.989C391.856 237.084 383.859 237.366 378.757 232.62C378.541 232.42 378.325 232.204 378.124 231.989L353.355 207.256L328.585 231.989C323.824 237.084 315.828 237.366 310.725 232.62C305.622 227.867 305.34 219.883 310.093 214.788C310.294 214.572 310.509 214.357 310.725 214.156L335.495 189.424L310.725 164.691C305.622 159.938 305.34 151.953 310.093 146.858C314.853 141.763 322.85 141.481 327.952 146.227C328.168 146.427 328.384 146.643 328.585 146.858L353.355 171.591L378.124 146.858Z" fill="#D6786B"/>
</g>
<defs>
<clipPath id="clip0_68_353">
<rect width="400" height="236" fill="white"/>
</clipPath>
</defs>
</svg>
